# xmcd
#
# Track frame offsets: 
#        150
#        18347
#        34770
#        52090
#        68772
#        88900
#        108745
#        126697
#        148612
#        168745
#
# Disc length: 2546 seconds
#
# Revision: 2
# Processed by: cddbd v1.5.2PL0 Copyright (c) Steve Scherf et al.
# Submitted via: ExactAudioCopyFreeDBPlugin 1.0
#
DISCID=9909f00a
DTITLE=沢口靖子 - FOLLOW ME
DYEAR=1988
DGENRE=JPop
TTITLE0=さよならは星屑の涙で
TTITLE1=SOMEDAY
TTITLE2=MOON SOLITUDE
TTITLE3=真昼のSAD SONG
TTITLE4=青いバカンス
TTITLE5=Follow Me
TTITLE6=悲しいアウトロー
TTITLE7=ひかりの素顔
TTITLE8=あったかいテレパシー
TTITLE9=独りをおぼえる為に
EXTD=
EXTT0=
EXTT1=
EXTT2=
EXTT3=
EXTT4=
EXTT5=
EXTT6=
EXTT7=
EXTT8=
EXTT9=
PLAYORDER=
